<mxfile host="app.diagrams.net" agent="Mozilla/5.0 (Windows NT 10.0; Win64; x64) AppleWebKit/537.36 (KHTML, like Gecko) Chrome/131.0.0.0 Safari/537.36" version="25.0.1">
  <diagram name="Page-1" id="IZ9ZeoTpkab2BtDsZXUm">
    <mxGraphModel dx="1229" dy="538" grid="1" gridSize="10" guides="1" tooltips="1" connect="1" arrows="1" fold="1" page="1" pageScale="1" pageWidth="850" pageHeight="1100" math="0" shadow="0">
      <root>
        <mxCell id="0" />
        <mxCell id="1" parent="0" />
        <mxCell id="pGw7Etr71XwitQisdbL5-1" value="Museum" style="swimlane;fontStyle=0;align=center;verticalAlign=top;childLayout=stackLayout;horizontal=1;startSize=26;horizontalStack=0;resizeParent=1;resizeLast=0;collapsible=1;marginBottom=0;rounded=0;shadow=0;strokeWidth=1;" vertex="1" parent="1">
          <mxGeometry x="463" y="830" width="160" height="182" as="geometry">
            <mxRectangle x="130" y="380" width="160" height="26" as="alternateBounds" />
          </mxGeometry>
        </mxCell>
        <mxCell id="pGw7Etr71XwitQisdbL5-2" value="museum_ID {PK}" style="text;align=left;verticalAlign=top;spacingLeft=4;spacingRight=4;overflow=hidden;rotatable=0;points=[[0,0.5],[1,0.5]];portConstraint=eastwest;" vertex="1" parent="pGw7Etr71XwitQisdbL5-1">
          <mxGeometry y="26" width="160" height="26" as="geometry" />
        </mxCell>
        <mxCell id="pGw7Etr71XwitQisdbL5-3" value="museum_name" style="text;align=left;verticalAlign=top;spacingLeft=4;spacingRight=4;overflow=hidden;rotatable=0;points=[[0,0.5],[1,0.5]];portConstraint=eastwest;" vertex="1" parent="pGw7Etr71XwitQisdbL5-1">
          <mxGeometry y="52" width="160" height="26" as="geometry" />
        </mxCell>
        <mxCell id="pGw7Etr71XwitQisdbL5-4" value="description" style="text;align=left;verticalAlign=top;spacingLeft=4;spacingRight=4;overflow=hidden;rotatable=0;points=[[0,0.5],[1,0.5]];portConstraint=eastwest;" vertex="1" parent="pGw7Etr71XwitQisdbL5-1">
          <mxGeometry y="78" width="160" height="26" as="geometry" />
        </mxCell>
        <mxCell id="pGw7Etr71XwitQisdbL5-5" value="address" style="text;align=left;verticalAlign=top;spacingLeft=4;spacingRight=4;overflow=hidden;rotatable=0;points=[[0,0.5],[1,0.5]];portConstraint=eastwest;" vertex="1" parent="pGw7Etr71XwitQisdbL5-1">
          <mxGeometry y="104" width="160" height="26" as="geometry" />
        </mxCell>
        <mxCell id="pGw7Etr71XwitQisdbL5-6" value="phone" style="text;align=left;verticalAlign=top;spacingLeft=4;spacingRight=4;overflow=hidden;rotatable=0;points=[[0,0.5],[1,0.5]];portConstraint=eastwest;" vertex="1" parent="pGw7Etr71XwitQisdbL5-1">
          <mxGeometry y="130" width="160" height="26" as="geometry" />
        </mxCell>
        <mxCell id="pGw7Etr71XwitQisdbL5-7" value="contactname" style="text;align=left;verticalAlign=top;spacingLeft=4;spacingRight=4;overflow=hidden;rotatable=0;points=[[0,0.5],[1,0.5]];portConstraint=eastwest;" vertex="1" parent="pGw7Etr71XwitQisdbL5-1">
          <mxGeometry y="156" width="160" height="26" as="geometry" />
        </mxCell>
        <mxCell id="pGw7Etr71XwitQisdbL5-8" value="ArtObject" style="swimlane;fontStyle=0;align=center;verticalAlign=top;childLayout=stackLayout;horizontal=1;startSize=26;horizontalStack=0;resizeParent=1;resizeLast=0;collapsible=1;marginBottom=0;rounded=0;shadow=0;strokeWidth=1;" vertex="1" parent="1">
          <mxGeometry x="463" y="349" width="160" height="341" as="geometry">
            <mxRectangle x="130" y="380" width="160" height="26" as="alternateBounds" />
          </mxGeometry>
        </mxCell>
        <mxCell id="pGw7Etr71XwitQisdbL5-9" value="artobject_ID {PK}" style="text;align=left;verticalAlign=top;spacingLeft=4;spacingRight=4;overflow=hidden;rotatable=0;points=[[0,0.5],[1,0.5]];portConstraint=eastwest;" vertex="1" parent="pGw7Etr71XwitQisdbL5-8">
          <mxGeometry y="26" width="160" height="26" as="geometry" />
        </mxCell>
        <mxCell id="pGw7Etr71XwitQisdbL5-10" value="year_creation" style="text;align=left;verticalAlign=top;spacingLeft=4;spacingRight=4;overflow=hidden;rotatable=0;points=[[0,0.5],[1,0.5]];portConstraint=eastwest;" vertex="1" parent="pGw7Etr71XwitQisdbL5-8">
          <mxGeometry y="52" width="160" height="26" as="geometry" />
        </mxCell>
        <mxCell id="pGw7Etr71XwitQisdbL5-11" value="title" style="text;align=left;verticalAlign=top;spacingLeft=4;spacingRight=4;overflow=hidden;rotatable=0;points=[[0,0.5],[1,0.5]];portConstraint=eastwest;" vertex="1" parent="pGw7Etr71XwitQisdbL5-8">
          <mxGeometry y="78" width="160" height="26" as="geometry" />
        </mxCell>
        <mxCell id="pGw7Etr71XwitQisdbL5-12" value="description" style="text;align=left;verticalAlign=top;spacingLeft=4;spacingRight=4;overflow=hidden;rotatable=0;points=[[0,0.5],[1,0.5]];portConstraint=eastwest;" vertex="1" parent="pGw7Etr71XwitQisdbL5-8">
          <mxGeometry y="104" width="160" height="26" as="geometry" />
        </mxCell>
        <mxCell id="pGw7Etr71XwitQisdbL5-13" value="origin" style="text;align=left;verticalAlign=top;spacingLeft=4;spacingRight=4;overflow=hidden;rotatable=0;points=[[0,0.5],[1,0.5]];portConstraint=eastwest;" vertex="1" parent="pGw7Etr71XwitQisdbL5-8">
          <mxGeometry y="130" width="160" height="26" as="geometry" />
        </mxCell>
        <mxCell id="pGw7Etr71XwitQisdbL5-14" value="epoch" style="text;align=left;verticalAlign=top;spacingLeft=4;spacingRight=4;overflow=hidden;rotatable=0;points=[[0,0.5],[1,0.5]];portConstraint=eastwest;" vertex="1" parent="pGw7Etr71XwitQisdbL5-8">
          <mxGeometry y="156" width="160" height="26" as="geometry" />
        </mxCell>
        <mxCell id="pGw7Etr71XwitQisdbL5-15" value="category" style="text;align=left;verticalAlign=top;spacingLeft=4;spacingRight=4;overflow=hidden;rotatable=0;points=[[0,0.5],[1,0.5]];portConstraint=eastwest;" vertex="1" parent="pGw7Etr71XwitQisdbL5-8">
          <mxGeometry y="182" width="160" height="26" as="geometry" />
        </mxCell>
        <mxCell id="pGw7Etr71XwitQisdbL5-16" value="date_acquired" style="text;align=left;verticalAlign=top;spacingLeft=4;spacingRight=4;overflow=hidden;rotatable=0;points=[[0,0.5],[1,0.5]];portConstraint=eastwest;" vertex="1" parent="pGw7Etr71XwitQisdbL5-8">
          <mxGeometry y="208" width="160" height="26" as="geometry" />
        </mxCell>
        <mxCell id="pGw7Etr71XwitQisdbL5-17" value="status" style="text;align=left;verticalAlign=top;spacingLeft=4;spacingRight=4;overflow=hidden;rotatable=0;points=[[0,0.5],[1,0.5]];portConstraint=eastwest;" vertex="1" parent="pGw7Etr71XwitQisdbL5-8">
          <mxGeometry y="234" width="160" height="26" as="geometry" />
        </mxCell>
        <mxCell id="pGw7Etr71XwitQisdbL5-18" value="cost" style="text;align=left;verticalAlign=top;spacingLeft=4;spacingRight=4;overflow=hidden;rotatable=0;points=[[0,0.5],[1,0.5]];portConstraint=eastwest;" vertex="1" parent="pGw7Etr71XwitQisdbL5-8">
          <mxGeometry y="260" width="160" height="26" as="geometry" />
        </mxCell>
        <mxCell id="pGw7Etr71XwitQisdbL5-19" value="date_borrowed" style="text;align=left;verticalAlign=top;spacingLeft=4;spacingRight=4;overflow=hidden;rotatable=0;points=[[0,0.5],[1,0.5]];portConstraint=eastwest;" vertex="1" parent="pGw7Etr71XwitQisdbL5-8">
          <mxGeometry y="286" width="160" height="26" as="geometry" />
        </mxCell>
        <mxCell id="pGw7Etr71XwitQisdbL5-20" value="date_returned" style="text;align=left;verticalAlign=top;spacingLeft=4;spacingRight=4;overflow=hidden;rotatable=0;points=[[0,0.5],[1,0.5]];portConstraint=eastwest;" vertex="1" parent="pGw7Etr71XwitQisdbL5-8">
          <mxGeometry y="312" width="160" height="26" as="geometry" />
        </mxCell>
        <mxCell id="pGw7Etr71XwitQisdbL5-21" value="Artist" style="swimlane;fontStyle=0;align=center;verticalAlign=top;childLayout=stackLayout;horizontal=1;startSize=26;horizontalStack=0;resizeParent=1;resizeLast=0;collapsible=1;marginBottom=0;rounded=0;shadow=0;strokeWidth=1;" vertex="1" parent="1">
          <mxGeometry x="183" y="111" width="160" height="234" as="geometry">
            <mxRectangle x="130" y="380" width="160" height="26" as="alternateBounds" />
          </mxGeometry>
        </mxCell>
        <mxCell id="pGw7Etr71XwitQisdbL5-22" value="artist_ID {PK}" style="text;align=left;verticalAlign=top;spacingLeft=4;spacingRight=4;overflow=hidden;rotatable=0;points=[[0,0.5],[1,0.5]];portConstraint=eastwest;" vertex="1" parent="pGw7Etr71XwitQisdbL5-21">
          <mxGeometry y="26" width="160" height="26" as="geometry" />
        </mxCell>
        <mxCell id="pGw7Etr71XwitQisdbL5-23" value="artist_name" style="text;align=left;verticalAlign=top;spacingLeft=4;spacingRight=4;overflow=hidden;rotatable=0;points=[[0,0.5],[1,0.5]];portConstraint=eastwest;" vertex="1" parent="pGw7Etr71XwitQisdbL5-21">
          <mxGeometry y="52" width="160" height="26" as="geometry" />
        </mxCell>
        <mxCell id="pGw7Etr71XwitQisdbL5-24" value="date_born" style="text;align=left;verticalAlign=top;spacingLeft=4;spacingRight=4;overflow=hidden;rotatable=0;points=[[0,0.5],[1,0.5]];portConstraint=eastwest;" vertex="1" parent="pGw7Etr71XwitQisdbL5-21">
          <mxGeometry y="78" width="160" height="26" as="geometry" />
        </mxCell>
        <mxCell id="pGw7Etr71XwitQisdbL5-25" value="date_died" style="text;align=left;verticalAlign=top;spacingLeft=4;spacingRight=4;overflow=hidden;rotatable=0;points=[[0,0.5],[1,0.5]];portConstraint=eastwest;" vertex="1" parent="pGw7Etr71XwitQisdbL5-21">
          <mxGeometry y="104" width="160" height="26" as="geometry" />
        </mxCell>
        <mxCell id="pGw7Etr71XwitQisdbL5-26" value="country_of_origin" style="text;align=left;verticalAlign=top;spacingLeft=4;spacingRight=4;overflow=hidden;rotatable=0;points=[[0,0.5],[1,0.5]];portConstraint=eastwest;" vertex="1" parent="pGw7Etr71XwitQisdbL5-21">
          <mxGeometry y="130" width="160" height="26" as="geometry" />
        </mxCell>
        <mxCell id="pGw7Etr71XwitQisdbL5-27" value="epoch" style="text;align=left;verticalAlign=top;spacingLeft=4;spacingRight=4;overflow=hidden;rotatable=0;points=[[0,0.5],[1,0.5]];portConstraint=eastwest;" vertex="1" parent="pGw7Etr71XwitQisdbL5-21">
          <mxGeometry y="156" width="160" height="26" as="geometry" />
        </mxCell>
        <mxCell id="pGw7Etr71XwitQisdbL5-28" value="main_style" style="text;align=left;verticalAlign=top;spacingLeft=4;spacingRight=4;overflow=hidden;rotatable=0;points=[[0,0.5],[1,0.5]];portConstraint=eastwest;" vertex="1" parent="pGw7Etr71XwitQisdbL5-21">
          <mxGeometry y="182" width="160" height="26" as="geometry" />
        </mxCell>
        <mxCell id="pGw7Etr71XwitQisdbL5-29" value="description" style="text;align=left;verticalAlign=top;spacingLeft=4;spacingRight=4;overflow=hidden;rotatable=0;points=[[0,0.5],[1,0.5]];portConstraint=eastwest;" vertex="1" parent="pGw7Etr71XwitQisdbL5-21">
          <mxGeometry y="208" width="160" height="26" as="geometry" />
        </mxCell>
        <mxCell id="pGw7Etr71XwitQisdbL5-30" value="Painting" style="swimlane;fontStyle=0;align=center;verticalAlign=top;childLayout=stackLayout;horizontal=1;startSize=26;horizontalStack=0;resizeParent=1;resizeLast=0;collapsible=1;marginBottom=0;rounded=0;shadow=0;strokeWidth=1;" vertex="1" parent="1">
          <mxGeometry x="143" y="370" width="160" height="110" as="geometry">
            <mxRectangle x="130" y="380" width="160" height="26" as="alternateBounds" />
          </mxGeometry>
        </mxCell>
        <mxCell id="pGw7Etr71XwitQisdbL5-31" value="types" style="text;align=left;verticalAlign=top;spacingLeft=4;spacingRight=4;overflow=hidden;rotatable=0;points=[[0,0.5],[1,0.5]];portConstraint=eastwest;" vertex="1" parent="pGw7Etr71XwitQisdbL5-30">
          <mxGeometry y="26" width="160" height="26" as="geometry" />
        </mxCell>
        <mxCell id="pGw7Etr71XwitQisdbL5-32" value="material" style="text;align=left;verticalAlign=top;spacingLeft=4;spacingRight=4;overflow=hidden;rotatable=0;points=[[0,0.5],[1,0.5]];portConstraint=eastwest;" vertex="1" parent="pGw7Etr71XwitQisdbL5-30">
          <mxGeometry y="52" width="160" height="26" as="geometry" />
        </mxCell>
        <mxCell id="pGw7Etr71XwitQisdbL5-33" value="style" style="text;align=left;verticalAlign=top;spacingLeft=4;spacingRight=4;overflow=hidden;rotatable=0;points=[[0,0.5],[1,0.5]];portConstraint=eastwest;" vertex="1" parent="pGw7Etr71XwitQisdbL5-30">
          <mxGeometry y="78" width="160" height="26" as="geometry" />
        </mxCell>
        <mxCell id="pGw7Etr71XwitQisdbL5-34" value="Sculpture" style="swimlane;fontStyle=0;align=center;verticalAlign=top;childLayout=stackLayout;horizontal=1;startSize=26;horizontalStack=0;resizeParent=1;resizeLast=0;collapsible=1;marginBottom=0;rounded=0;shadow=0;strokeWidth=1;" vertex="1" parent="1">
          <mxGeometry x="143" y="519" width="160" height="130" as="geometry">
            <mxRectangle x="130" y="380" width="160" height="26" as="alternateBounds" />
          </mxGeometry>
        </mxCell>
        <mxCell id="pGw7Etr71XwitQisdbL5-35" value="material" style="text;align=left;verticalAlign=top;spacingLeft=4;spacingRight=4;overflow=hidden;rotatable=0;points=[[0,0.5],[1,0.5]];portConstraint=eastwest;" vertex="1" parent="pGw7Etr71XwitQisdbL5-34">
          <mxGeometry y="26" width="160" height="26" as="geometry" />
        </mxCell>
        <mxCell id="pGw7Etr71XwitQisdbL5-36" value="height" style="text;align=left;verticalAlign=top;spacingLeft=4;spacingRight=4;overflow=hidden;rotatable=0;points=[[0,0.5],[1,0.5]];portConstraint=eastwest;" vertex="1" parent="pGw7Etr71XwitQisdbL5-34">
          <mxGeometry y="52" width="160" height="26" as="geometry" />
        </mxCell>
        <mxCell id="pGw7Etr71XwitQisdbL5-37" value="weight" style="text;align=left;verticalAlign=top;spacingLeft=4;spacingRight=4;overflow=hidden;rotatable=0;points=[[0,0.5],[1,0.5]];portConstraint=eastwest;" vertex="1" parent="pGw7Etr71XwitQisdbL5-34">
          <mxGeometry y="78" width="160" height="26" as="geometry" />
        </mxCell>
        <mxCell id="pGw7Etr71XwitQisdbL5-38" value="style" style="text;align=left;verticalAlign=top;spacingLeft=4;spacingRight=4;overflow=hidden;rotatable=0;points=[[0,0.5],[1,0.5]];portConstraint=eastwest;" vertex="1" parent="pGw7Etr71XwitQisdbL5-34">
          <mxGeometry y="104" width="160" height="26" as="geometry" />
        </mxCell>
        <mxCell id="pGw7Etr71XwitQisdbL5-39" value="Others" style="swimlane;fontStyle=0;align=center;verticalAlign=top;childLayout=stackLayout;horizontal=1;startSize=26;horizontalStack=0;resizeParent=1;resizeLast=0;collapsible=1;marginBottom=0;rounded=0;shadow=0;strokeWidth=1;" vertex="1" parent="1">
          <mxGeometry x="263" y="830" width="160" height="80" as="geometry">
            <mxRectangle x="130" y="380" width="160" height="26" as="alternateBounds" />
          </mxGeometry>
        </mxCell>
        <mxCell id="pGw7Etr71XwitQisdbL5-40" value="type" style="text;align=left;verticalAlign=top;spacingLeft=4;spacingRight=4;overflow=hidden;rotatable=0;points=[[0,0.5],[1,0.5]];portConstraint=eastwest;" vertex="1" parent="pGw7Etr71XwitQisdbL5-39">
          <mxGeometry y="26" width="160" height="26" as="geometry" />
        </mxCell>
        <mxCell id="pGw7Etr71XwitQisdbL5-41" value="style" style="text;align=left;verticalAlign=top;spacingLeft=4;spacingRight=4;overflow=hidden;rotatable=0;points=[[0,0.5],[1,0.5]];portConstraint=eastwest;" vertex="1" parent="pGw7Etr71XwitQisdbL5-39">
          <mxGeometry y="52" width="160" height="26" as="geometry" />
        </mxCell>
        <mxCell id="pGw7Etr71XwitQisdbL5-42" value="Statue" style="swimlane;fontStyle=0;align=center;verticalAlign=top;childLayout=stackLayout;horizontal=1;startSize=26;horizontalStack=0;resizeParent=1;resizeLast=0;collapsible=1;marginBottom=0;rounded=0;shadow=0;strokeWidth=1;" vertex="1" parent="1">
          <mxGeometry x="143" y="680" width="160" height="130" as="geometry">
            <mxRectangle x="130" y="380" width="160" height="26" as="alternateBounds" />
          </mxGeometry>
        </mxCell>
        <mxCell id="pGw7Etr71XwitQisdbL5-43" value="material" style="text;align=left;verticalAlign=top;spacingLeft=4;spacingRight=4;overflow=hidden;rotatable=0;points=[[0,0.5],[1,0.5]];portConstraint=eastwest;" vertex="1" parent="pGw7Etr71XwitQisdbL5-42">
          <mxGeometry y="26" width="160" height="26" as="geometry" />
        </mxCell>
        <mxCell id="pGw7Etr71XwitQisdbL5-44" value="height" style="text;align=left;verticalAlign=top;spacingLeft=4;spacingRight=4;overflow=hidden;rotatable=0;points=[[0,0.5],[1,0.5]];portConstraint=eastwest;" vertex="1" parent="pGw7Etr71XwitQisdbL5-42">
          <mxGeometry y="52" width="160" height="26" as="geometry" />
        </mxCell>
        <mxCell id="pGw7Etr71XwitQisdbL5-45" value="weight" style="text;align=left;verticalAlign=top;spacingLeft=4;spacingRight=4;overflow=hidden;rotatable=0;points=[[0,0.5],[1,0.5]];portConstraint=eastwest;" vertex="1" parent="pGw7Etr71XwitQisdbL5-42">
          <mxGeometry y="78" width="160" height="26" as="geometry" />
        </mxCell>
        <mxCell id="pGw7Etr71XwitQisdbL5-46" value="style" style="text;align=left;verticalAlign=top;spacingLeft=4;spacingRight=4;overflow=hidden;rotatable=0;points=[[0,0.5],[1,0.5]];portConstraint=eastwest;" vertex="1" parent="pGw7Etr71XwitQisdbL5-42">
          <mxGeometry y="104" width="160" height="26" as="geometry" />
        </mxCell>
        <mxCell id="pGw7Etr71XwitQisdbL5-47" value="Exhibition" style="swimlane;fontStyle=0;align=center;verticalAlign=top;childLayout=stackLayout;horizontal=1;startSize=26;horizontalStack=0;resizeParent=1;resizeLast=0;collapsible=1;marginBottom=0;rounded=0;shadow=0;strokeWidth=1;" vertex="1" parent="1">
          <mxGeometry x="960" y="349" width="160" height="182" as="geometry">
            <mxRectangle x="130" y="380" width="160" height="26" as="alternateBounds" />
          </mxGeometry>
        </mxCell>
        <mxCell id="pGw7Etr71XwitQisdbL5-48" value="exhibition_ID {PK}" style="text;align=left;verticalAlign=top;spacingLeft=4;spacingRight=4;overflow=hidden;rotatable=0;points=[[0,0.5],[1,0.5]];portConstraint=eastwest;" vertex="1" parent="pGw7Etr71XwitQisdbL5-47">
          <mxGeometry y="26" width="160" height="26" as="geometry" />
        </mxCell>
        <mxCell id="pGw7Etr71XwitQisdbL5-49" value="exhibition_name" style="text;align=left;verticalAlign=top;spacingLeft=4;spacingRight=4;overflow=hidden;rotatable=0;points=[[0,0.5],[1,0.5]];portConstraint=eastwest;" vertex="1" parent="pGw7Etr71XwitQisdbL5-47">
          <mxGeometry y="52" width="160" height="26" as="geometry" />
        </mxCell>
        <mxCell id="pGw7Etr71XwitQisdbL5-50" value="category (regular/featured)" style="text;align=left;verticalAlign=top;spacingLeft=4;spacingRight=4;overflow=hidden;rotatable=0;points=[[0,0.5],[1,0.5]];portConstraint=eastwest;" vertex="1" parent="pGw7Etr71XwitQisdbL5-47">
          <mxGeometry y="78" width="160" height="26" as="geometry" />
        </mxCell>
        <mxCell id="pGw7Etr71XwitQisdbL5-51" value="type" style="text;align=left;verticalAlign=top;spacingLeft=4;spacingRight=4;overflow=hidden;rotatable=0;points=[[0,0.5],[1,0.5]];portConstraint=eastwest;" vertex="1" parent="pGw7Etr71XwitQisdbL5-47">
          <mxGeometry y="104" width="160" height="26" as="geometry" />
        </mxCell>
        <mxCell id="pGw7Etr71XwitQisdbL5-52" value="start_period_date" style="text;align=left;verticalAlign=top;spacingLeft=4;spacingRight=4;overflow=hidden;rotatable=0;points=[[0,0.5],[1,0.5]];portConstraint=eastwest;" vertex="1" parent="pGw7Etr71XwitQisdbL5-47">
          <mxGeometry y="130" width="160" height="26" as="geometry" />
        </mxCell>
        <mxCell id="pGw7Etr71XwitQisdbL5-53" value="end_period_date" style="text;align=left;verticalAlign=top;spacingLeft=4;spacingRight=4;overflow=hidden;rotatable=0;points=[[0,0.5],[1,0.5]];portConstraint=eastwest;" vertex="1" parent="pGw7Etr71XwitQisdbL5-47">
          <mxGeometry y="156" width="160" height="26" as="geometry" />
        </mxCell>
        <mxCell id="pGw7Etr71XwitQisdbL5-54" value="Mimic" style="swimlane;fontStyle=0;align=center;verticalAlign=top;childLayout=stackLayout;horizontal=1;startSize=26;horizontalStack=0;resizeParent=1;resizeLast=0;collapsible=1;marginBottom=0;rounded=0;shadow=0;strokeWidth=1;" vertex="1" parent="1">
          <mxGeometry x="708" y="189" width="160" height="110" as="geometry">
            <mxRectangle x="130" y="380" width="160" height="26" as="alternateBounds" />
          </mxGeometry>
        </mxCell>
        <mxCell id="pGw7Etr71XwitQisdbL5-55" value="mimic_ID {PK}" style="text;align=left;verticalAlign=top;spacingLeft=4;spacingRight=4;overflow=hidden;rotatable=0;points=[[0,0.5],[1,0.5]];portConstraint=eastwest;" vertex="1" parent="pGw7Etr71XwitQisdbL5-54">
          <mxGeometry y="26" width="160" height="26" as="geometry" />
        </mxCell>
        <mxCell id="pGw7Etr71XwitQisdbL5-56" value="mimic_name" style="text;align=left;verticalAlign=top;spacingLeft=4;spacingRight=4;overflow=hidden;rotatable=0;points=[[0,0.5],[1,0.5]];portConstraint=eastwest;" vertex="1" parent="pGw7Etr71XwitQisdbL5-54">
          <mxGeometry y="52" width="160" height="26" as="geometry" />
        </mxCell>
        <mxCell id="pGw7Etr71XwitQisdbL5-57" value="price" style="text;align=left;verticalAlign=top;spacingLeft=4;spacingRight=4;overflow=hidden;rotatable=0;points=[[0,0.5],[1,0.5]];portConstraint=eastwest;" vertex="1" parent="pGw7Etr71XwitQisdbL5-54">
          <mxGeometry y="78" width="160" height="26" as="geometry" />
        </mxCell>
        <mxCell id="pGw7Etr71XwitQisdbL5-58" value="LoyalVisitor" style="swimlane;fontStyle=0;align=center;verticalAlign=top;childLayout=stackLayout;horizontal=1;startSize=26;horizontalStack=0;resizeParent=1;resizeLast=0;collapsible=1;marginBottom=0;rounded=0;shadow=0;strokeWidth=1;" vertex="1" parent="1">
          <mxGeometry x="1463" y="349" width="160" height="131" as="geometry">
            <mxRectangle x="130" y="380" width="160" height="26" as="alternateBounds" />
          </mxGeometry>
        </mxCell>
        <mxCell id="pGw7Etr71XwitQisdbL5-59" value="loyalvisitor_No {PK}" style="text;align=left;verticalAlign=top;spacingLeft=4;spacingRight=4;overflow=hidden;rotatable=0;points=[[0,0.5],[1,0.5]];portConstraint=eastwest;" vertex="1" parent="pGw7Etr71XwitQisdbL5-58">
          <mxGeometry y="26" width="160" height="26" as="geometry" />
        </mxCell>
        <mxCell id="pGw7Etr71XwitQisdbL5-60" value="loyalvisitor_name" style="text;align=left;verticalAlign=top;spacingLeft=4;spacingRight=4;overflow=hidden;rotatable=0;points=[[0,0.5],[1,0.5]];portConstraint=eastwest;" vertex="1" parent="pGw7Etr71XwitQisdbL5-58">
          <mxGeometry y="52" width="160" height="26" as="geometry" />
        </mxCell>
        <mxCell id="pGw7Etr71XwitQisdbL5-61" value="status" style="text;align=left;verticalAlign=top;spacingLeft=4;spacingRight=4;overflow=hidden;rotatable=0;points=[[0,0.5],[1,0.5]];portConstraint=eastwest;" vertex="1" parent="pGw7Etr71XwitQisdbL5-58">
          <mxGeometry y="78" width="160" height="26" as="geometry" />
        </mxCell>
        <mxCell id="pGw7Etr71XwitQisdbL5-62" value="preference" style="text;align=left;verticalAlign=top;spacingLeft=4;spacingRight=4;overflow=hidden;rotatable=0;points=[[0,0.5],[1,0.5]];portConstraint=eastwest;" vertex="1" parent="pGw7Etr71XwitQisdbL5-58">
          <mxGeometry y="104" width="160" height="26" as="geometry" />
        </mxCell>
        <mxCell id="pGw7Etr71XwitQisdbL5-63" value="Staff" style="swimlane;fontStyle=0;align=center;verticalAlign=top;childLayout=stackLayout;horizontal=1;startSize=26;horizontalStack=0;resizeParent=1;resizeLast=0;collapsible=1;marginBottom=0;rounded=0;shadow=0;strokeWidth=1;" vertex="1" parent="1">
          <mxGeometry x="959" y="639.36" width="160" height="104" as="geometry">
            <mxRectangle x="130" y="380" width="160" height="26" as="alternateBounds" />
          </mxGeometry>
        </mxCell>
        <mxCell id="pGw7Etr71XwitQisdbL5-64" value="staff_ID {PK}" style="text;align=left;verticalAlign=top;spacingLeft=4;spacingRight=4;overflow=hidden;rotatable=0;points=[[0,0.5],[1,0.5]];portConstraint=eastwest;" vertex="1" parent="pGw7Etr71XwitQisdbL5-63">
          <mxGeometry y="26" width="160" height="26" as="geometry" />
        </mxCell>
        <mxCell id="pGw7Etr71XwitQisdbL5-65" value="staff_name" style="text;align=left;verticalAlign=top;spacingLeft=4;spacingRight=4;overflow=hidden;rotatable=0;points=[[0,0.5],[1,0.5]];portConstraint=eastwest;" vertex="1" parent="pGw7Etr71XwitQisdbL5-63">
          <mxGeometry y="52" width="160" height="26" as="geometry" />
        </mxCell>
        <mxCell id="pGw7Etr71XwitQisdbL5-66" value="types" style="text;align=left;verticalAlign=top;spacingLeft=4;spacingRight=4;overflow=hidden;rotatable=0;points=[[0,0.5],[1,0.5]];portConstraint=eastwest;" vertex="1" parent="pGw7Etr71XwitQisdbL5-63">
          <mxGeometry y="78" width="160" height="26" as="geometry" />
        </mxCell>
        <mxCell id="pGw7Etr71XwitQisdbL5-67" value="Maintainance" style="swimlane;fontStyle=0;align=center;verticalAlign=top;childLayout=stackLayout;horizontal=1;startSize=26;horizontalStack=0;resizeParent=1;resizeLast=0;collapsible=1;marginBottom=0;rounded=0;shadow=0;strokeWidth=1;" vertex="1" parent="1">
          <mxGeometry x="695" y="756.36" width="160" height="60" as="geometry">
            <mxRectangle x="130" y="380" width="160" height="26" as="alternateBounds" />
          </mxGeometry>
        </mxCell>
        <mxCell id="pGw7Etr71XwitQisdbL5-68" value="maintainance_date" style="text;align=left;verticalAlign=top;spacingLeft=4;spacingRight=4;overflow=hidden;rotatable=0;points=[[0,0.5],[1,0.5]];portConstraint=eastwest;" vertex="1" parent="pGw7Etr71XwitQisdbL5-67">
          <mxGeometry y="26" width="160" height="26" as="geometry" />
        </mxCell>
        <mxCell id="pGw7Etr71XwitQisdbL5-69" value="Allocation" style="swimlane;fontStyle=0;align=center;verticalAlign=top;childLayout=stackLayout;horizontal=1;startSize=26;horizontalStack=0;resizeParent=1;resizeLast=0;collapsible=1;marginBottom=0;rounded=0;shadow=0;strokeWidth=1;" vertex="1" parent="1">
          <mxGeometry x="1228" y="756.36" width="160" height="60" as="geometry">
            <mxRectangle x="130" y="380" width="160" height="26" as="alternateBounds" />
          </mxGeometry>
        </mxCell>
        <mxCell id="pGw7Etr71XwitQisdbL5-70" value="allocation_date" style="text;align=left;verticalAlign=top;spacingLeft=4;spacingRight=4;overflow=hidden;rotatable=0;points=[[0,0.5],[1,0.5]];portConstraint=eastwest;" vertex="1" parent="pGw7Etr71XwitQisdbL5-69">
          <mxGeometry y="26" width="160" height="34" as="geometry" />
        </mxCell>
        <mxCell id="pGw7Etr71XwitQisdbL5-71" value="ExhibitionSell" style="swimlane;fontStyle=0;align=center;verticalAlign=top;childLayout=stackLayout;horizontal=1;startSize=26;horizontalStack=0;resizeParent=1;resizeLast=0;collapsible=1;marginBottom=0;rounded=0;shadow=0;strokeWidth=1;" vertex="1" parent="1">
          <mxGeometry x="1233" y="189" width="140" height="78" as="geometry">
            <mxRectangle x="130" y="380" width="160" height="26" as="alternateBounds" />
          </mxGeometry>
        </mxCell>
        <mxCell id="pGw7Etr71XwitQisdbL5-72" value="start_date_sale" style="text;align=left;verticalAlign=top;spacingLeft=4;spacingRight=4;overflow=hidden;rotatable=0;points=[[0,0.5],[1,0.5]];portConstraint=eastwest;" vertex="1" parent="pGw7Etr71XwitQisdbL5-71">
          <mxGeometry y="26" width="140" height="26" as="geometry" />
        </mxCell>
        <mxCell id="pGw7Etr71XwitQisdbL5-73" value="end_date_sale" style="text;align=left;verticalAlign=top;spacingLeft=4;spacingRight=4;overflow=hidden;rotatable=0;points=[[0,0.5],[1,0.5]];portConstraint=eastwest;" vertex="1" parent="pGw7Etr71XwitQisdbL5-71">
          <mxGeometry y="52" width="140" height="26" as="geometry" />
        </mxCell>
        <mxCell id="pGw7Etr71XwitQisdbL5-74" value="&lt;font face=&quot;Tahoma&quot; style=&quot;font-size: 18px;&quot;&gt;&lt;font style=&quot;&quot;&gt;CS5097 Group3 : Logical database design&lt;/font&gt;&lt;/font&gt;&lt;div&gt;&lt;font face=&quot;Tahoma&quot; style=&quot;font-size: 18px;&quot;&gt;&lt;span style=&quot;background-color: initial;&quot;&gt;Logical Model&lt;/span&gt;&lt;/font&gt;&lt;/div&gt;" style="text;html=1;align=left;verticalAlign=middle;whiteSpace=wrap;rounded=0;fontStyle=1" vertex="1" parent="1">
          <mxGeometry x="40" y="40" width="478" height="60" as="geometry" />
        </mxCell>
        <mxCell id="pGw7Etr71XwitQisdbL5-75" value="" style="endArrow=none;html=1;rounded=0;exitX=1.004;exitY=-0.007;exitDx=0;exitDy=0;exitPerimeter=0;entryX=-0.002;entryY=-0.003;entryDx=0;entryDy=0;entryPerimeter=0;" edge="1" parent="1" source="pGw7Etr71XwitQisdbL5-22" target="pGw7Etr71XwitQisdbL5-9">
          <mxGeometry width="50" height="50" relative="1" as="geometry">
            <mxPoint x="823" y="429" as="sourcePoint" />
            <mxPoint x="451" y="367" as="targetPoint" />
          </mxGeometry>
        </mxCell>
        <mxCell id="pGw7Etr71XwitQisdbL5-76" value="1..1" style="text;html=1;align=center;verticalAlign=middle;whiteSpace=wrap;rounded=0;" vertex="1" parent="1">
          <mxGeometry x="337" y="126" width="45" height="30" as="geometry" />
        </mxCell>
        <mxCell id="pGw7Etr71XwitQisdbL5-77" value="1..*" style="text;html=1;align=center;verticalAlign=middle;whiteSpace=wrap;rounded=0;" vertex="1" parent="1">
          <mxGeometry x="436" y="326" width="45" height="30" as="geometry" />
        </mxCell>
        <mxCell id="pGw7Etr71XwitQisdbL5-78" value="" style="endArrow=none;html=1;rounded=0;exitX=0;exitY=0.962;exitDx=0;exitDy=0;entryX=1.002;entryY=0.095;entryDx=0;entryDy=0;entryPerimeter=0;exitPerimeter=0;" edge="1" parent="1" source="pGw7Etr71XwitQisdbL5-9" target="pGw7Etr71XwitQisdbL5-30">
          <mxGeometry width="50" height="50" relative="1" as="geometry">
            <mxPoint x="453" y="307" as="sourcePoint" />
            <mxPoint x="313" y="400" as="targetPoint" />
          </mxGeometry>
        </mxCell>
        <mxCell id="pGw7Etr71XwitQisdbL5-79" value="" style="endArrow=none;html=1;rounded=0;entryX=0.5;entryY=0;entryDx=0;entryDy=0;exitX=0.5;exitY=1;exitDx=0;exitDy=0;" edge="1" parent="1" source="pGw7Etr71XwitQisdbL5-8" target="pGw7Etr71XwitQisdbL5-1">
          <mxGeometry width="50" height="50" relative="1" as="geometry">
            <mxPoint x="571" y="700" as="sourcePoint" />
            <mxPoint x="533" y="850" as="targetPoint" />
          </mxGeometry>
        </mxCell>
        <mxCell id="pGw7Etr71XwitQisdbL5-80" value="Arts Friends Circle" style="edgeLabel;html=1;align=center;verticalAlign=middle;resizable=0;points=[];" vertex="1" connectable="0" parent="pGw7Etr71XwitQisdbL5-79">
          <mxGeometry x="-0.0925" y="-1" relative="1" as="geometry">
            <mxPoint as="offset" />
          </mxGeometry>
        </mxCell>
        <mxCell id="pGw7Etr71XwitQisdbL5-81" value="1..*" style="text;html=1;align=center;verticalAlign=middle;whiteSpace=wrap;rounded=0;" vertex="1" parent="1">
          <mxGeometry x="533" y="686" width="45" height="30" as="geometry" />
        </mxCell>
        <mxCell id="pGw7Etr71XwitQisdbL5-82" value="" style="endArrow=none;html=1;rounded=0;entryX=0.999;entryY=0.099;entryDx=0;entryDy=0;entryPerimeter=0;exitX=0;exitY=0.5;exitDx=0;exitDy=0;" edge="1" parent="1" source="pGw7Etr71XwitQisdbL5-13" target="pGw7Etr71XwitQisdbL5-34">
          <mxGeometry width="50" height="50" relative="1" as="geometry">
            <mxPoint x="463" y="530" as="sourcePoint" />
            <mxPoint x="313" y="399" as="targetPoint" />
          </mxGeometry>
        </mxCell>
        <mxCell id="pGw7Etr71XwitQisdbL5-83" value="" style="endArrow=none;html=1;rounded=0;entryX=0.999;entryY=0.099;entryDx=0;entryDy=0;exitX=0;exitY=0.5;exitDx=0;exitDy=0;entryPerimeter=0;" edge="1" parent="1" source="pGw7Etr71XwitQisdbL5-16" target="pGw7Etr71XwitQisdbL5-42">
          <mxGeometry width="50" height="50" relative="1" as="geometry">
            <mxPoint x="463" y="640" as="sourcePoint" />
            <mxPoint x="313" y="559" as="targetPoint" />
          </mxGeometry>
        </mxCell>
        <mxCell id="pGw7Etr71XwitQisdbL5-84" value="" style="endArrow=none;html=1;rounded=0;entryX=0.5;entryY=0;entryDx=0;entryDy=0;exitX=0;exitY=1;exitDx=0;exitDy=0;" edge="1" parent="1" source="pGw7Etr71XwitQisdbL5-8" target="pGw7Etr71XwitQisdbL5-39">
          <mxGeometry width="50" height="50" relative="1" as="geometry">
            <mxPoint x="473" y="359" as="sourcePoint" />
            <mxPoint x="313" y="719" as="targetPoint" />
          </mxGeometry>
        </mxCell>
        <mxCell id="pGw7Etr71XwitQisdbL5-85" value="1..1" style="text;html=1;align=center;verticalAlign=middle;whiteSpace=wrap;rounded=0;" vertex="1" parent="1">
          <mxGeometry x="298" y="503" width="45" height="30" as="geometry" />
        </mxCell>
        <mxCell id="pGw7Etr71XwitQisdbL5-86" value="1..1" style="text;html=1;align=center;verticalAlign=middle;whiteSpace=wrap;rounded=0;" vertex="1" parent="1">
          <mxGeometry x="298" y="650" width="45" height="30" as="geometry" />
        </mxCell>
        <mxCell id="pGw7Etr71XwitQisdbL5-87" value="1..1" style="text;html=1;align=center;verticalAlign=middle;whiteSpace=wrap;rounded=0;" vertex="1" parent="1">
          <mxGeometry x="533" y="807" width="45" height="30" as="geometry" />
        </mxCell>
        <mxCell id="pGw7Etr71XwitQisdbL5-88" value="1..1" style="text;html=1;align=center;verticalAlign=middle;whiteSpace=wrap;rounded=0;" vertex="1" parent="1">
          <mxGeometry x="312.5" y="803" width="45" height="30" as="geometry" />
        </mxCell>
        <mxCell id="pGw7Etr71XwitQisdbL5-89" value="1..1" style="text;html=1;align=center;verticalAlign=middle;whiteSpace=wrap;rounded=0;" vertex="1" parent="1">
          <mxGeometry x="298" y="359" width="45" height="30" as="geometry" />
        </mxCell>
        <mxCell id="pGw7Etr71XwitQisdbL5-90" value="1..1" style="text;html=1;align=center;verticalAlign=middle;whiteSpace=wrap;rounded=0;" vertex="1" parent="1">
          <mxGeometry x="423" y="554" width="45" height="30" as="geometry" />
        </mxCell>
        <mxCell id="pGw7Etr71XwitQisdbL5-91" value="1..1" style="text;html=1;align=center;verticalAlign=middle;whiteSpace=wrap;rounded=0;" vertex="1" parent="1">
          <mxGeometry x="423" y="470" width="45" height="30" as="geometry" />
        </mxCell>
        <mxCell id="pGw7Etr71XwitQisdbL5-92" value="1..1" style="text;html=1;align=center;verticalAlign=middle;whiteSpace=wrap;rounded=0;" vertex="1" parent="1">
          <mxGeometry x="424" y="674" width="45" height="30" as="geometry" />
        </mxCell>
        <mxCell id="pGw7Etr71XwitQisdbL5-93" value="&lt;span style=&quot;text-wrap-mode: nowrap;&quot;&gt;Sell mimic in&amp;nbsp;&lt;br&gt;&lt;/span&gt;featured&amp;nbsp;&lt;span style=&quot;text-wrap-mode: nowrap;&quot;&gt;exhibition&lt;/span&gt;" style="rhombus;whiteSpace=wrap;html=1;" vertex="1" parent="1">
          <mxGeometry x="955" y="175" width="170" height="80" as="geometry" />
        </mxCell>
        <mxCell id="pGw7Etr71XwitQisdbL5-94" value="" style="endArrow=none;html=1;rounded=0;entryX=0.5;entryY=0;entryDx=0;entryDy=0;exitX=0;exitY=0.001;exitDx=0;exitDy=0;exitPerimeter=0;" edge="1" parent="1" source="pGw7Etr71XwitQisdbL5-55" target="pGw7Etr71XwitQisdbL5-8">
          <mxGeometry width="50" height="50" relative="1" as="geometry">
            <mxPoint x="683" y="230" as="sourcePoint" />
            <mxPoint x="808" y="523" as="targetPoint" />
            <Array as="points">
              <mxPoint x="543" y="215" />
            </Array>
          </mxGeometry>
        </mxCell>
        <mxCell id="pGw7Etr71XwitQisdbL5-95" value="" style="endArrow=none;html=1;rounded=0;exitX=1;exitY=0.5;exitDx=0;exitDy=0;dashed=1;entryX=-0.001;entryY=0;entryDx=0;entryDy=0;entryPerimeter=0;" edge="1" parent="1" source="pGw7Etr71XwitQisdbL5-93" target="pGw7Etr71XwitQisdbL5-72">
          <mxGeometry width="50" height="50" relative="1" as="geometry">
            <mxPoint x="943" y="241" as="sourcePoint" />
            <mxPoint x="1193" y="220" as="targetPoint" />
          </mxGeometry>
        </mxCell>
        <mxCell id="pGw7Etr71XwitQisdbL5-96" value="Sell" style="edgeLabel;html=1;align=center;verticalAlign=middle;resizable=0;points=[];" vertex="1" connectable="0" parent="pGw7Etr71XwitQisdbL5-95">
          <mxGeometry x="-0.0731" y="-2" relative="1" as="geometry">
            <mxPoint as="offset" />
          </mxGeometry>
        </mxCell>
        <mxCell id="pGw7Etr71XwitQisdbL5-97" value="" style="endArrow=none;html=1;rounded=0;entryX=1.001;entryY=-0.004;entryDx=0;entryDy=0;entryPerimeter=0;exitX=0;exitY=0.5;exitDx=0;exitDy=0;" edge="1" parent="1" source="pGw7Etr71XwitQisdbL5-93" target="pGw7Etr71XwitQisdbL5-55">
          <mxGeometry width="50" height="50" relative="1" as="geometry">
            <mxPoint x="923" y="180" as="sourcePoint" />
            <mxPoint x="883" y="210" as="targetPoint" />
          </mxGeometry>
        </mxCell>
        <mxCell id="pGw7Etr71XwitQisdbL5-98" value="" style="endArrow=none;html=1;rounded=0;entryX=0.5;entryY=0;entryDx=0;entryDy=0;exitX=0.5;exitY=1;exitDx=0;exitDy=0;" edge="1" parent="1" source="pGw7Etr71XwitQisdbL5-93" target="pGw7Etr71XwitQisdbL5-47">
          <mxGeometry width="50" height="50" relative="1" as="geometry">
            <mxPoint x="968" y="161" as="sourcePoint" />
            <mxPoint x="888" y="161" as="targetPoint" />
          </mxGeometry>
        </mxCell>
        <mxCell id="pGw7Etr71XwitQisdbL5-99" value="&lt;span style=&quot;font-size: 12px; text-wrap-mode: wrap; background-color: rgb(251, 251, 251);&quot;&gt;featured&amp;nbsp;&lt;/span&gt;&lt;span style=&quot;font-size: 12px; background-color: rgb(251, 251, 251);&quot;&gt;exhibition&lt;/span&gt;" style="edgeLabel;html=1;align=center;verticalAlign=middle;resizable=0;points=[];" vertex="1" connectable="0" parent="pGw7Etr71XwitQisdbL5-98">
          <mxGeometry x="-0.1107" y="-1" relative="1" as="geometry">
            <mxPoint as="offset" />
          </mxGeometry>
        </mxCell>
        <mxCell id="pGw7Etr71XwitQisdbL5-100" value="&lt;span style=&quot;text-wrap-mode: nowrap;&quot;&gt;Show Art Object&lt;/span&gt;&lt;div&gt;&lt;span style=&quot;text-wrap-mode: nowrap;&quot;&gt;in exhibition&lt;/span&gt;&lt;/div&gt;" style="rhombus;whiteSpace=wrap;html=1;" vertex="1" parent="1">
          <mxGeometry x="703" y="334" width="170" height="80" as="geometry" />
        </mxCell>
        <mxCell id="pGw7Etr71XwitQisdbL5-101" value="" style="endArrow=none;html=1;rounded=0;exitX=0;exitY=0.5;exitDx=0;exitDy=0;entryX=1.001;entryY=-0.005;entryDx=0;entryDy=0;entryPerimeter=0;" edge="1" parent="1" source="pGw7Etr71XwitQisdbL5-100" target="pGw7Etr71XwitQisdbL5-9">
          <mxGeometry width="50" height="50" relative="1" as="geometry">
            <mxPoint x="1033" y="279" as="sourcePoint" />
            <mxPoint x="653" y="549" as="targetPoint" />
          </mxGeometry>
        </mxCell>
        <mxCell id="pGw7Etr71XwitQisdbL5-102" value="" style="endArrow=none;html=1;rounded=0;exitX=1;exitY=0.5;exitDx=0;exitDy=0;entryX=0;entryY=-0.005;entryDx=0;entryDy=0;entryPerimeter=0;" edge="1" parent="1" source="pGw7Etr71XwitQisdbL5-100" target="pGw7Etr71XwitQisdbL5-48">
          <mxGeometry width="50" height="50" relative="1" as="geometry">
            <mxPoint x="713" y="502" as="sourcePoint" />
            <mxPoint x="633" y="502" as="targetPoint" />
          </mxGeometry>
        </mxCell>
        <mxCell id="pGw7Etr71XwitQisdbL5-103" value="" style="endArrow=none;html=1;rounded=0;entryX=0.5;entryY=0;entryDx=0;entryDy=0;exitX=0.5;exitY=1;exitDx=0;exitDy=0;dashed=1;" edge="1" parent="1" source="pGw7Etr71XwitQisdbL5-100" target="pGw7Etr71XwitQisdbL5-105">
          <mxGeometry width="50" height="50" relative="1" as="geometry">
            <mxPoint x="1153" y="239" as="sourcePoint" />
            <mxPoint x="798" y="579" as="targetPoint" />
          </mxGeometry>
        </mxCell>
        <mxCell id="pGw7Etr71XwitQisdbL5-104" value="Show" style="edgeLabel;html=1;align=center;verticalAlign=middle;resizable=0;points=[];" vertex="1" connectable="0" parent="pGw7Etr71XwitQisdbL5-103">
          <mxGeometry x="-0.0731" y="-2" relative="1" as="geometry">
            <mxPoint as="offset" />
          </mxGeometry>
        </mxCell>
        <mxCell id="pGw7Etr71XwitQisdbL5-105" value="ExhibitionShow" style="swimlane;fontStyle=0;align=center;verticalAlign=top;childLayout=stackLayout;horizontal=1;startSize=26;horizontalStack=0;resizeParent=1;resizeLast=0;collapsible=1;marginBottom=0;rounded=0;shadow=0;strokeWidth=1;" vertex="1" parent="1">
          <mxGeometry x="718" y="469" width="140" height="78" as="geometry">
            <mxRectangle x="130" y="380" width="160" height="26" as="alternateBounds" />
          </mxGeometry>
        </mxCell>
        <mxCell id="pGw7Etr71XwitQisdbL5-106" value="start_date_show" style="text;align=left;verticalAlign=top;spacingLeft=4;spacingRight=4;overflow=hidden;rotatable=0;points=[[0,0.5],[1,0.5]];portConstraint=eastwest;" vertex="1" parent="pGw7Etr71XwitQisdbL5-105">
          <mxGeometry y="26" width="140" height="26" as="geometry" />
        </mxCell>
        <mxCell id="pGw7Etr71XwitQisdbL5-107" value="end_date_show" style="text;align=left;verticalAlign=top;spacingLeft=4;spacingRight=4;overflow=hidden;rotatable=0;points=[[0,0.5],[1,0.5]];portConstraint=eastwest;" vertex="1" parent="pGw7Etr71XwitQisdbL5-105">
          <mxGeometry y="52" width="140" height="26" as="geometry" />
        </mxCell>
        <mxCell id="pGw7Etr71XwitQisdbL5-108" value="&lt;span style=&quot;text-wrap-mode: nowrap;&quot;&gt;Maintainance&lt;/span&gt;" style="rhombus;whiteSpace=wrap;html=1;" vertex="1" parent="1">
          <mxGeometry x="690" y="625.36" width="170" height="80" as="geometry" />
        </mxCell>
        <mxCell id="pGw7Etr71XwitQisdbL5-109" value="" style="endArrow=none;html=1;rounded=0;entryX=1;entryY=0.5;entryDx=0;entryDy=0;exitX=0;exitY=0.5;exitDx=0;exitDy=0;" edge="1" parent="1" source="pGw7Etr71XwitQisdbL5-108" target="pGw7Etr71XwitQisdbL5-15">
          <mxGeometry width="50" height="50" relative="1" as="geometry">
            <mxPoint x="903" y="830" as="sourcePoint" />
            <mxPoint x="663" y="590" as="targetPoint" />
            <Array as="points">
              <mxPoint x="660" y="665" />
              <mxPoint x="660" y="544" />
            </Array>
          </mxGeometry>
        </mxCell>
        <mxCell id="pGw7Etr71XwitQisdbL5-110" value="&lt;span style=&quot;text-wrap-mode: nowrap;&quot;&gt;Allocation&lt;/span&gt;" style="rhombus;whiteSpace=wrap;html=1;" vertex="1" parent="1">
          <mxGeometry x="1223" y="624" width="170" height="80" as="geometry" />
        </mxCell>
        <mxCell id="pGw7Etr71XwitQisdbL5-111" value="" style="endArrow=none;html=1;rounded=0;entryX=0.5;entryY=0;entryDx=0;entryDy=0;exitX=0.5;exitY=1;exitDx=0;exitDy=0;dashed=1;" edge="1" parent="1" source="pGw7Etr71XwitQisdbL5-108" target="pGw7Etr71XwitQisdbL5-67">
          <mxGeometry width="50" height="50" relative="1" as="geometry">
            <mxPoint x="695" y="500.36" as="sourcePoint" />
            <mxPoint x="695" y="550.36" as="targetPoint" />
          </mxGeometry>
        </mxCell>
        <mxCell id="pGw7Etr71XwitQisdbL5-112" value="Maintain" style="edgeLabel;html=1;align=center;verticalAlign=middle;resizable=0;points=[];" vertex="1" connectable="0" parent="pGw7Etr71XwitQisdbL5-111">
          <mxGeometry x="-0.0731" y="-2" relative="1" as="geometry">
            <mxPoint as="offset" />
          </mxGeometry>
        </mxCell>
        <mxCell id="pGw7Etr71XwitQisdbL5-113" value="" style="endArrow=none;html=1;rounded=0;entryX=1;entryY=0.5;entryDx=0;entryDy=0;exitX=0;exitY=0.25;exitDx=0;exitDy=0;" edge="1" parent="1" source="pGw7Etr71XwitQisdbL5-63" target="pGw7Etr71XwitQisdbL5-108">
          <mxGeometry width="50" height="50" relative="1" as="geometry">
            <mxPoint x="960" y="650.36" as="sourcePoint" />
            <mxPoint x="366" y="488.36" as="targetPoint" />
          </mxGeometry>
        </mxCell>
        <mxCell id="pGw7Etr71XwitQisdbL5-114" value="Curator" style="edgeLabel;html=1;align=center;verticalAlign=middle;resizable=0;points=[];" vertex="1" connectable="0" parent="pGw7Etr71XwitQisdbL5-113">
          <mxGeometry x="0.0946" y="1" relative="1" as="geometry">
            <mxPoint as="offset" />
          </mxGeometry>
        </mxCell>
        <mxCell id="pGw7Etr71XwitQisdbL5-115" value="" style="endArrow=none;html=1;rounded=0;exitX=0.5;exitY=0;exitDx=0;exitDy=0;entryX=0.498;entryY=0.997;entryDx=0;entryDy=0;entryPerimeter=0;" edge="1" parent="1" source="pGw7Etr71XwitQisdbL5-110" target="pGw7Etr71XwitQisdbL5-53">
          <mxGeometry width="50" height="50" relative="1" as="geometry">
            <mxPoint x="1073" y="669" as="sourcePoint" />
            <mxPoint x="1033" y="534" as="targetPoint" />
            <Array as="points">
              <mxPoint x="1308" y="600" />
              <mxPoint x="1040" y="600" />
            </Array>
          </mxGeometry>
        </mxCell>
        <mxCell id="pGw7Etr71XwitQisdbL5-116" value="" style="endArrow=none;html=1;rounded=0;entryX=0;entryY=0.5;entryDx=0;entryDy=0;exitX=1;exitY=0.25;exitDx=0;exitDy=0;" edge="1" parent="1" source="pGw7Etr71XwitQisdbL5-63" target="pGw7Etr71XwitQisdbL5-110">
          <mxGeometry width="50" height="50" relative="1" as="geometry">
            <mxPoint x="1220" y="780" as="sourcePoint" />
            <mxPoint x="1073" y="797" as="targetPoint" />
          </mxGeometry>
        </mxCell>
        <mxCell id="pGw7Etr71XwitQisdbL5-117" value="Supervisor" style="edgeLabel;html=1;align=center;verticalAlign=middle;resizable=0;points=[];" vertex="1" connectable="0" parent="pGw7Etr71XwitQisdbL5-116">
          <mxGeometry x="0.013" y="1" relative="1" as="geometry">
            <mxPoint y="1" as="offset" />
          </mxGeometry>
        </mxCell>
        <mxCell id="pGw7Etr71XwitQisdbL5-118" value="" style="endArrow=none;html=1;rounded=0;entryX=0.5;entryY=0;entryDx=0;entryDy=0;exitX=0.5;exitY=1;exitDx=0;exitDy=0;dashed=1;" edge="1" parent="1" source="pGw7Etr71XwitQisdbL5-110" target="pGw7Etr71XwitQisdbL5-69">
          <mxGeometry width="50" height="50" relative="1" as="geometry">
            <mxPoint x="1233" y="329" as="sourcePoint" />
            <mxPoint x="1333" y="327" as="targetPoint" />
          </mxGeometry>
        </mxCell>
        <mxCell id="pGw7Etr71XwitQisdbL5-119" value="Manage" style="edgeLabel;html=1;align=center;verticalAlign=middle;resizable=0;points=[];" vertex="1" connectable="0" parent="pGw7Etr71XwitQisdbL5-118">
          <mxGeometry x="-0.0731" y="-2" relative="1" as="geometry">
            <mxPoint as="offset" />
          </mxGeometry>
        </mxCell>
        <mxCell id="pGw7Etr71XwitQisdbL5-120" value="1..1" style="text;html=1;align=center;verticalAlign=middle;whiteSpace=wrap;rounded=0;" vertex="1" parent="1">
          <mxGeometry x="424" y="376" width="45" height="30" as="geometry" />
        </mxCell>
        <mxCell id="pGw7Etr71XwitQisdbL5-121" value="1..*" style="text;html=1;align=center;verticalAlign=middle;whiteSpace=wrap;rounded=0;" vertex="1" parent="1">
          <mxGeometry x="613" y="351" width="45" height="30" as="geometry" />
        </mxCell>
        <mxCell id="pGw7Etr71XwitQisdbL5-122" value="1..*" style="text;html=1;align=center;verticalAlign=middle;whiteSpace=wrap;rounded=0;" vertex="1" parent="1">
          <mxGeometry x="922" y="351" width="45" height="30" as="geometry" />
        </mxCell>
        <mxCell id="pGw7Etr71XwitQisdbL5-123" value="1..1" style="text;html=1;align=center;verticalAlign=middle;whiteSpace=wrap;rounded=0;" vertex="1" parent="1">
          <mxGeometry x="535" y="322" width="45" height="30" as="geometry" />
        </mxCell>
        <mxCell id="pGw7Etr71XwitQisdbL5-124" value="0..*" style="text;html=1;align=center;verticalAlign=middle;whiteSpace=wrap;rounded=0;" vertex="1" parent="1">
          <mxGeometry x="671" y="210" width="45" height="30" as="geometry" />
        </mxCell>
        <mxCell id="pGw7Etr71XwitQisdbL5-125" value="&lt;span style=&quot;text-wrap-mode: nowrap;&quot;&gt;Invitation&lt;/span&gt;" style="rhombus;whiteSpace=wrap;html=1;" vertex="1" parent="1">
          <mxGeometry x="1218" y="335" width="170" height="80" as="geometry" />
        </mxCell>
        <mxCell id="pGw7Etr71XwitQisdbL5-126" value="" style="endArrow=none;html=1;rounded=0;entryX=0.5;entryY=0;entryDx=0;entryDy=0;exitX=0.5;exitY=1;exitDx=0;exitDy=0;dashed=1;" edge="1" parent="1" source="pGw7Etr71XwitQisdbL5-125" target="pGw7Etr71XwitQisdbL5-128">
          <mxGeometry width="50" height="50" relative="1" as="geometry">
            <mxPoint x="1337" y="450" as="sourcePoint" />
            <mxPoint x="1337" y="500" as="targetPoint" />
          </mxGeometry>
        </mxCell>
        <mxCell id="pGw7Etr71XwitQisdbL5-127" value="Sent Invitation" style="edgeLabel;html=1;align=center;verticalAlign=middle;resizable=0;points=[];" vertex="1" connectable="0" parent="pGw7Etr71XwitQisdbL5-126">
          <mxGeometry x="-0.0731" y="-2" relative="1" as="geometry">
            <mxPoint as="offset" />
          </mxGeometry>
        </mxCell>
        <mxCell id="pGw7Etr71XwitQisdbL5-128" value="Invitation" style="swimlane;fontStyle=0;align=center;verticalAlign=top;childLayout=stackLayout;horizontal=1;startSize=26;horizontalStack=0;resizeParent=1;resizeLast=0;collapsible=1;marginBottom=0;rounded=0;shadow=0;strokeWidth=1;" vertex="1" parent="1">
          <mxGeometry x="1233" y="469" width="140" height="81" as="geometry">
            <mxRectangle x="130" y="380" width="160" height="26" as="alternateBounds" />
          </mxGeometry>
        </mxCell>
        <mxCell id="pGw7Etr71XwitQisdbL5-129" value="Invitation_ID {PK}" style="text;align=left;verticalAlign=top;spacingLeft=4;spacingRight=4;overflow=hidden;rotatable=0;points=[[0,0.5],[1,0.5]];portConstraint=eastwest;" vertex="1" parent="pGw7Etr71XwitQisdbL5-128">
          <mxGeometry y="26" width="140" height="26" as="geometry" />
        </mxCell>
        <mxCell id="pGw7Etr71XwitQisdbL5-130" value="datesent" style="text;align=left;verticalAlign=top;spacingLeft=4;spacingRight=4;overflow=hidden;rotatable=0;points=[[0,0.5],[1,0.5]];portConstraint=eastwest;" vertex="1" parent="pGw7Etr71XwitQisdbL5-128">
          <mxGeometry y="52" width="140" height="26" as="geometry" />
        </mxCell>
        <mxCell id="pGw7Etr71XwitQisdbL5-131" value="" style="endArrow=none;html=1;rounded=0;exitX=0;exitY=0.5;exitDx=0;exitDy=0;entryX=1;entryY=0.003;entryDx=0;entryDy=0;entryPerimeter=0;" edge="1" parent="1" source="pGw7Etr71XwitQisdbL5-125" target="pGw7Etr71XwitQisdbL5-48">
          <mxGeometry width="50" height="50" relative="1" as="geometry">
            <mxPoint x="1203" y="580" as="sourcePoint" />
            <mxPoint x="1131" y="380" as="targetPoint" />
          </mxGeometry>
        </mxCell>
        <mxCell id="pGw7Etr71XwitQisdbL5-132" value="" style="endArrow=none;html=1;rounded=0;entryX=1;entryY=0.5;entryDx=0;entryDy=0;exitX=0.001;exitY=-0.003;exitDx=0;exitDy=0;exitPerimeter=0;" edge="1" parent="1" source="pGw7Etr71XwitQisdbL5-59" target="pGw7Etr71XwitQisdbL5-125">
          <mxGeometry width="50" height="50" relative="1" as="geometry">
            <mxPoint x="1463" y="415" as="sourcePoint" />
            <mxPoint x="1443" y="340" as="targetPoint" />
          </mxGeometry>
        </mxCell>
      </root>
    </mxGraphModel>
  </diagram>
</mxfile>
